<?xml version="1.0" standalone="no"?><!DOCTYPE svg PUBLIC "-//W3C//DTD SVG 1.1//EN" "http://www.w3.org/Graphics/SVG/1.1/DTD/svg11.dtd"><svg t="1653631100286" class="icon" viewBox="0 0 1024 1024" version="1.1" xmlns="http://www.w3.org/2000/svg" p-id="20230" xmlns:xlink="http://www.w3.org/1999/xlink" width="200" height="200"><defs><style type="text/css">@font-face { font-family: feedback-iconfont; src: url("//at.alicdn.com/t/font_1031158_u69w8yhxdu.woff2?t=1630033759944") format("woff2"), url("//at.alicdn.com/t/font_1031158_u69w8yhxdu.woff?t=1630033759944") format("woff"), url("//at.alicdn.com/t/font_1031158_u69w8yhxdu.ttf?t=1630033759944") format("truetype"); }
</style></defs><path d="M124.139355 546.840774h759.205161c6.961548 0 12.655484-3.600516 12.655484-8.002064v-56.002065c0-4.397419-5.693935-7.997935-12.655484-7.997935H124.139355c-6.961548 0-12.655484 3.600516-12.655484 8.002064V538.83871c0 4.401548 5.693935 8.002065 12.655484 8.002064zM904.002065 160H120.002065a8.02271 8.02271 0 0 0-8.002065 8.002065V224c0 4.401548 3.600516 8.002065 8.002065 8.002065h784a8.02271 8.02271 0 0 0 7.997935-8.002065V167.997935a8.02271 8.02271 0 0 0-8.002065-7.997935z m0 632.774194H120.002065a8.02271 8.02271 0 0 0-8.002065 8.002064V856.774194c0 4.401548 3.600516 8.002065 8.002065 8.002064h784a8.02271 8.02271 0 0 0 7.997935-8.002064v-56.002065a8.02271 8.02271 0 0 0-8.002065-7.997935z" p-id="20231"></path></svg>